<svg width="16" height="16" viewBox="0 0 16 16" fill="none" xmlns="http://www.w3.org/2000/svg">
<path d="M4.41034 14C4.1139 14 3.86034 13.8944 3.64967 13.6833C3.43901 13.4722 3.33345 13.2191 3.33301 12.924V7.07733C3.33301 6.78133 3.43856 6.528 3.64967 6.31733C3.86079 6.10667 4.11412 6.00089 4.40967 6H5.33301V4.66667C5.33301 3.924 5.5919 3.294 6.10967 2.77667C6.62701 2.25889 7.25701 2 7.99967 2C8.74234 2 9.37256 2.25889 9.89034 2.77667C10.4081 3.29444 10.6668 3.92444 10.6663 4.66667V6H11.5897C11.8857 6 12.139 6.10556 12.3497 6.31667C12.5603 6.52778 12.6659 6.78111 12.6663 7.07667V12.9233C12.6663 13.2193 12.5608 13.4727 12.3497 13.6833C12.1386 13.894 11.8852 13.9996 11.5897 14H4.41034ZM7.99967 11C8.28101 11 8.5179 10.9036 8.71034 10.7107C8.90323 10.5182 8.99967 10.2813 8.99967 10C8.99967 9.71867 8.90323 9.48178 8.71034 9.28933C8.51745 9.09689 8.28056 9.00044 7.99967 9C7.71879 8.99956 7.4819 9.096 7.28901 9.28933C7.09612 9.48178 6.99967 9.71867 6.99967 10C6.99967 10.2813 7.09612 10.5182 7.28901 10.7107C7.48145 10.9036 7.71834 11 7.99967 11ZM5.99967 6H9.99967V4.66667C9.99967 4.11111 9.80523 3.63889 9.41634 3.25C9.02745 2.86111 8.55523 2.66667 7.99967 2.66667C7.44412 2.66667 6.9719 2.86111 6.58301 3.25C6.19412 3.63889 5.99967 4.11111 5.99967 4.66667V6Z" fill="black"/>
</svg>
