<svg width="28" height="28" viewBox="0 0 28 28" fill="none" xmlns="http://www.w3.org/2000/svg">
<path d="M23.734 20.0157H21.8117C21.6804 20.0157 21.5575 20.0731 21.4755 20.1742C21.284 20.4066 21.0789 20.6309 20.863 20.8441C19.9794 21.7286 18.9329 22.4334 17.7813 22.9195C16.5882 23.4235 15.3058 23.6821 14.0105 23.6797C12.7008 23.6797 11.432 23.4227 10.2399 22.9195C9.08822 22.4334 8.0417 21.7286 7.15822 20.8441C6.27317 19.9628 5.56743 18.9181 5.0801 17.768C4.57424 16.5758 4.31994 15.3098 4.31994 14C4.31994 12.6903 4.57697 11.4243 5.0801 10.2321C5.56682 9.0809 6.26682 8.04458 7.15822 7.1559C8.04963 6.26723 9.08596 5.56723 10.2399 5.08051C11.432 4.57738 12.7008 4.32035 14.0105 4.32035C15.3204 4.32035 16.5891 4.57465 17.7813 5.08051C18.9352 5.56723 19.9715 6.26723 20.863 7.1559C21.0789 7.37192 21.2813 7.59613 21.4755 7.82583C21.5575 7.927 21.6832 7.98442 21.8117 7.98442H23.734C23.9063 7.98442 24.013 7.79301 23.9172 7.64808C21.82 4.38871 18.1505 2.2313 13.9804 2.24223C7.42892 2.25863 2.17619 7.577 2.24182 14.1204C2.30744 20.5598 7.55197 25.7579 14.0105 25.7579C18.1696 25.7579 21.8227 23.6032 23.9172 20.352C24.0102 20.207 23.9063 20.0157 23.734 20.0157ZM26.1649 13.8278L22.2848 10.7653C22.1399 10.6504 21.9293 10.7543 21.9293 10.9375V13.0157H13.3433C13.223 13.0157 13.1246 13.1142 13.1246 13.2344V14.7657C13.1246 14.886 13.223 14.9844 13.3433 14.9844H21.9293V17.0625C21.9293 17.2458 22.1426 17.3496 22.2848 17.2348L26.1649 14.1723C26.191 14.1519 26.2121 14.1257 26.2267 14.0959C26.2413 14.066 26.2488 14.0333 26.2488 14C26.2488 13.9669 26.2413 13.9341 26.2267 13.9042C26.2121 13.8744 26.191 13.8482 26.1649 13.8278Z" fill="#DC1F1F"/>
</svg>
