<svg width="28" height="28" viewBox="0 0 28 28" fill="none" xmlns="http://www.w3.org/2000/svg">
<g clip-path="url(#clip0_765_4486)">
<mask id="mask0_765_4486" style="mask-type:luminance" maskUnits="userSpaceOnUse" x="0" y="0" width="28" height="28">
<path d="M28 0H0V28H28V0Z" fill="white"/>
</mask>
<g mask="url(#mask0_765_4486)">
<path d="M25.3008 21.991V23.8215H2.62305V21.991L2.80288 21.8324L2.8029 21.8324L2.8055 21.83C3.56103 21.1444 4.22154 20.3609 4.76948 19.5003L4.77578 19.4904L4.78113 19.4799C5.39253 18.2857 5.75865 16.9813 5.85791 15.6434L5.8586 15.6342V15.6249L5.8586 11.7826L5.8586 11.7821C5.85462 9.80923 6.56577 7.90171 7.86033 6.41289C9.15489 4.92408 10.9451 3.95486 12.8995 3.68475L13.1153 3.65493V3.4371V2.41821C13.1153 2.20914 13.1984 2.00862 13.3462 1.86077C13.494 1.71294 13.6945 1.62988 13.9036 1.62988C14.1127 1.62988 14.3132 1.71294 14.461 1.86077C14.6088 2.00862 14.6919 2.20914 14.6919 2.41821V3.42155V3.64164L14.9102 3.66954C16.8823 3.92149 18.6944 4.88488 20.0062 6.37871C21.318 7.87254 22.0391 9.79399 22.0342 11.782V11.7826V15.6249V15.6342L22.0349 15.6434C22.1341 16.9813 22.5003 18.2858 23.1117 19.4799L23.1174 19.4912L23.1243 19.5018C23.6819 20.3643 24.3533 21.148 25.12 21.8315L25.121 21.8324L25.3008 21.991ZM5.6086 15.6249C5.51181 16.9295 5.1548 18.2015 4.5586 19.366L5.6086 15.6249Z" fill="white" stroke="black" stroke-width="0.5"/>
<path d="M12.2266 25.1387C12.3253 25.4596 12.512 25.7487 12.768 25.9718C13.0978 26.259 13.5204 26.4173 13.9577 26.4173C14.395 26.4173 14.8176 26.259 15.1474 25.9718L12.2266 25.1387ZM12.2266 25.1387H15.6887C15.59 25.4596 15.4034 25.7487 15.1474 25.9718L12.2266 25.1387Z" fill="white" stroke="black" stroke-width="0.5"/>
</g>
</g>
<defs>
<clipPath id="clip0_765_4486">
<rect width="28" height="28" fill="white"/>
</clipPath>
</defs>
</svg>
